SplineFontDB: 3.2
FontName: ycaxen-light
FullName: ycaxen Light
FamilyName: ycaxen
Weight: Light
Copyright: Copyright (c) 2023, skarsna.meloviliju
UComments: "2023-11-13: Created with FontForge (http://fontforge.org)+AAoA-2023-11-17: Complete minimum characters "
Version: 001.000
ItalicAngle: 0
UnderlinePosition: -102
UnderlineWidth: 51
Ascent: 819
Descent: 205
InvalidEm: 0
LayerCount: 2
Layer: 0 0 "+gMyXYgAA" 1
Layer: 1 0 "+Uk2XYgAA" 0
XUID: [1021 765 1012425290 27352]
StyleMap: 0x0000
FSType: 0
OS2Version: 0
OS2_WeightWidthSlopeOnly: 0
OS2_UseTypoMetrics: 1
CreationTime: 1699859195
ModificationTime: 1701705157
OS2TypoAscent: 0
OS2TypoAOffset: 1
OS2TypoDescent: 0
OS2TypoDOffset: 1
OS2TypoLinegap: 92
OS2WinAscent: 0
OS2WinAOffset: 1
OS2WinDescent: 0
OS2WinDOffset: 1
HheadAscent: 0
HheadAOffset: 1
HheadDescent: 0
HheadDOffset: 1
MarkAttachClasses: 1
DEI: 91125
LangName: 1033
Encoding: ISO8859-1
UnicodeInterp: none
NameList: AGL For New Fonts
DisplaySize: -48
AntiAlias: 1
FitToEm: 0
WinInfo: 60 15 4
BeginPrivate: 0
EndPrivate
BeginChars: 256 38

StartChar: exclam
Encoding: 33 33 1
Width: 574
Flags: W
VStem: 118.92 36.8438<139.737 604.755> 356.236 36.8438<-35.0508 671.301>
LayerCount: 2
Fore
SplineSet
155.763671875 604.754882812 m 1
 155.763671875 139.737304688 l 1
 118.919921875 139.737304688 l 1
 118.919921875 604.754882812 l 1
 155.763671875 604.754882812 l 1
356.236328125 700.27734375 m 1
 393.080078125 671.30078125 l 1
 393.080078125 -113.864257812 l 1
 232.705078125 13.4638671875 l 1
 181.1328125 71.677734375 l 1
 356.236328125 -35.05078125 l 1
 356.236328125 700.27734375 l 1
EndSplineSet
Validated: 1
EndChar

StartChar: comma
Encoding: 44 44 2
Width: 226
Flags: W
HStem: -190.032 226.635
VStem: 50.3691 125.631
LayerCount: 2
Fore
SplineSet
176 36.6025390625 m 1
 74.681640625 -159.530273438 l 1
 50.369140625 -190.032226562 l 1
 120.534179688 12.376953125 l 1
 176 36.6025390625 l 1
EndSplineSet
Validated: 1
EndChar

StartChar: period
Encoding: 46 46 3
Width: 168
Flags: W
HStem: -0.200195 67.584<52.4665 115.95>
VStem: 50.416 67.584<1.85026 65.3333>
LayerCount: 2
Fore
SplineSet
50.416015625 33.591796875 m 0
 50.416015625 52.2548828125 65.544921875 67.3837890625 84.2080078125 67.3837890625 c 0
 102.87109375 67.3837890625 118 52.2548828125 118 33.591796875 c 0
 118 14.9287109375 102.87109375 -0.2001953125 84.2080078125 -0.2001953125 c 0
 65.544921875 -0.2001953125 50.416015625 14.9287109375 50.416015625 33.591796875 c 0
EndSplineSet
Validated: 1
EndChar

StartChar: quotedbl
Encoding: 34 34 4
Width: 248
Flags: W
HStem: 424.368 202.059
VStem: 9.96875 228.031
LayerCount: 2
Fore
SplineSet
135.599609375 626.426757812 m 1
 34.28125 454.870117188 l 1
 9.96875 424.368164062 l 1
 80.1337890625 626.77734375 l 1
 135.599609375 626.426757812 l 1
238 626.426757812 m 1
 136.681640625 454.870117188 l 1
 112.369140625 424.368164062 l 1
 182.534179688 626.77734375 l 1
 238 626.426757812 l 1
EndSplineSet
Validated: 1
EndChar

StartChar: hyphen
Encoding: 45 45 5
Width: 407
Flags: W
HStem: 258.687 46.6055<49.7988 357>
VStem: 49.7988 307.201<258.687 305.292>
LayerCount: 2
Fore
SplineSet
49.798828125 258.686523438 m 1
 49.798828125 305.291992188 l 1
 357 305.291992188 l 1
 357 258.686523438 l 1
 49.798828125 258.686523438 l 1
EndSplineSet
Validated: 1
EndChar

StartChar: question
Encoding: 63 63 6
Width: 625
Flags: W
HStem: 76.5703 38.7549<221.138 420.062> 476.892 35.0381<75.5859 399.372>
LayerCount: 2
Fore
SplineSet
545.7890625 362.264648438 m 1
 572.676757812 281.970703125 582.584960938 191.326171875 568.82421875 132.942382812 c 0
 538.814453125 70.6494140625 506.864257812 76.5703125 214.118164062 76.5703125 c 0
 76.951171875 76.5703125 399.372070312 476.891601562 399.372070312 476.891601562 c 1
 75.5859375 476.891601562 l 1
 49.775390625 511.9296875 l 1
 393.569335938 511.9296875 l 2
 445.926757812 510.509765625 450.506835938 494.254882812 435.689453125 470.03515625 c 0
 420.619140625 445.40234375 194.453125 170.538085938 222.77734375 115.325195312 c 1
 458.59375 115.325195312 l 2
 568.825195312 113.375976562 536.580078125 233.631835938 545.7890625 362.264648438 c 1
EndSplineSet
Validated: 33
EndChar

StartChar: A
Encoding: 65 65 7
Width: 551
Flags: W
HStem: 0.698242 31.4238<117.603 316.951> 320.798 29.3799<117.603 312.807> 522.566 29.3799<117.603 433.519>
VStem: 77.8604 39.7422<32.1221 320.798 350.178 522.566>
LayerCount: 2
Fore
SplineSet
75.1240234375 551.946289062 m 1
 433.518554688 551.946289062 l 1
 433.518554688 522.56640625 l 1
 117.602539062 522.56640625 l 1
 117.602539062 350.177734375 l 1
 213.81640625 350.177734375 l 2
 566.541015625 350.177734375 559.330078125 0.6982421875 216.551757812 0.6982421875 c 2
 77.8603515625 0.6982421875 l 1
 75.1240234375 551.946289062 l 1
117.602539062 320.797851562 m 1
 117.602539062 32.1220703125 l 1
 223.49609375 32.1220703125 l 2
 508.1015625 32.1220703125 499.272460938 320.797851562 221.196289062 320.797851562 c 2
 117.602539062 320.797851562 l 1
EndSplineSet
Validated: 33
EndChar

StartChar: B
Encoding: 66 66 8
Width: 564
Flags: W
HStem: -12.4883 23.0723<232.29 331.597> 536.008 22.876<232.787 262.162 301.727 332.742>
VStem: 59.8887 49.7998<154.812 395.007> 262.162 39.5645<556.3 716.6> 454.2 49.7998<156.425 396.315>
CounterMasks: 1 38
LayerCount: 2
Fore
SplineSet
262.162109375 716.599609375 m 1
 301.7265625 716.599609375 l 1
 301.7265625 558.866210938 l 1
 414.353515625 545.458984375 504 419.1875 504 275.34375 c 0
 504.000976562 123.166015625 404.583007812 -12.48828125 281.944335938 -12.48828125 c 0
 159.305664062 -12.48828125 59.8447265625 121.155273438 59.888671875 275.34375 c 0
 59.9296875 421.087890625 149.540039062 545.666992188 262.162109375 558.883789062 c 1
 262.162109375 716.599609375 l 1
281.944335938 536.0078125 m 0
 181.154296875 536.0078125 109.688476562 421.56640625 109.688476562 275.34375 c 0
 109.688476562 129.12109375 181.154296875 10.583984375 281.944335938 10.583984375 c 0
 382.734375 10.583984375 454.200195312 131.168945312 454.200195312 277.391601562 c 0
 454.200195312 423.615234375 382.734375 536.0078125 281.944335938 536.0078125 c 0
EndSplineSet
Validated: 33
EndChar

StartChar: C
Encoding: 67 67 9
Width: 532
Flags: W
HStem: -0.438477 30.4033<119.048 260.896> 522.701 29.2451<119.048 259.064>
VStem: 74.5215 44.5264<29.9648 522.701>
LayerCount: 2
Fore
SplineSet
74.521484375 551.946289062 m 1
 154.948242188 551.946289062 l 2
 572.07421875 551.946289062 583.2578125 -0.4423828125 154.948242188 -0.4384765625 c 2
 74.521484375 -0.4384765625 l 1
 74.521484375 551.946289062 l 1
119.047851562 522.701171875 m 1
 119.047851562 29.96484375 l 1
 174.428710938 29.96484375 l 2
 514.501953125 29.96484375 505.655273438 522.701171875 174.428710938 522.701171875 c 2
 119.047851562 522.701171875 l 1
EndSplineSet
Validated: 33
EndChar

StartChar: D
Encoding: 68 68 10
Width: 694
Flags: W
HStem: -0.200195 21G<593.571 634> 532.008 20G<593.571 634>
VStem: 60.1719 38.9307<79.2271 552.383> 322.448 38.9297<95.7506 552.325> 593.571 40.4287<-0.200195 51.7012 56.7896 552.008>
LayerCount: 2
Fore
SplineSet
61.373046875 552.729492188 m 1
 100.401367188 552.553710938 l 1
 100.401367188 552.553710938 99.0634765625 317.733398438 99.1025390625 162.748046875 c 0
 99.140625 8.5224609375 219.59765625 -46.7578125 335.129882812 93.9560546875 c 1
 322.701171875 132.516601562 322.227539062 153.229492188 322.448242188 192.49609375 c 0
 324.052734375 477.889648438 323.649414062 552.729492188 323.649414062 552.729492188 c 1
 362.676757812 552.553710938 l 1
 362.676757812 552.553710938 360.413085938 236.69921875 361.377929688 183.606445312 c 0
 365.056640625 -18.6494140625 509.45703125 -29.4501953125 593.571289062 75.005859375 c 1
 593.571289062 552.0078125 l 1
 634 552.0078125 l 1
 634 -0.2001953125 l 1
 593.571289062 -0.2001953125 l 1
 593.571289062 51.701171875 l 1
 540.905273438 -31.8623046875 399.530273438 -39.4736328125 343.110351562 81.1982421875 c 1
 275.58984375 -32.15234375 58.642578125 -79.6015625 60.171875 192.49609375 c 0
 61.7763671875 477.889648438 61.373046875 552.729492188 61.373046875 552.729492188 c 1
EndSplineSet
Validated: 33
EndChar

StartChar: E
Encoding: 69 69 11
Width: 524
Flags: W
HStem: -0.381836 21G<409.717 449> 531.157 19.9189G<75 115.841 409.717 449>
VStem: 74.999 40.8418<92.494 550.808> 409.717 39.2832<-0.381836 551.076>
LayerCount: 2
Fore
SplineSet
409.716796875 140.30078125 m 1
 383.177734375 -16.54296875 75.7880859375 -77.93359375 74.9990234375 148.833007812 c 0
 74.880859375 182.684570312 75 551.157226562 75 551.157226562 c 1
 115.840820312 550.984375 l 1
 115.840820312 550.984375 116.48828125 308.84375 115.840820312 156.520507812 c 0
 115.090820312 -19.7392578125 380.440429688 27.337890625 409.716796875 173.052734375 c 1
 409.716796875 551.076171875 l 1
 449 551.076171875 l 1
 449 -0.3818359375 l 1
 409.716796875 -0.3818359375 l 1
 409.716796875 140.30078125 l 1
EndSplineSet
Validated: 37
EndChar

StartChar: G
Encoding: 71 71 12
Width: 581
Flags: W
HStem: -4.28906 37.3984<212.804 390.229> 252.424 40.7744<116.099 465.033> 519.112 31.8711<211.068 358.984>
VStem: 70.4141 44.8174<141.37 252.424 293.198 403.963> 465.033 45.9668<293.198 394.248>
LayerCount: 2
Fore
SplineSet
291.970703125 550.983398438 m 0
 495.495117188 546.05078125 511 320.436523438 511 252.423828125 c 1
 115.231445312 252.423828125 l 1
 116.49609375 135.62109375 169.333984375 32.6064453125 291.990234375 33.109375 c 0
 406.334960938 33.578125 481.170898438 95.197265625 481.170898438 95.197265625 c 1
 479.220703125 91.3232421875 459.936523438 61.5380859375 457.71875 57.6884765625 c 0
 444.791015625 44.390625 390.043945312 -4.94140625 292.361328125 -4.2890625 c 0
 184.545898438 -3.5693359375 71.1640625 60.3740234375 70.4140625 276.07421875 c 0
 70.4140625 461.26171875 181.358398438 553.6640625 291.970703125 550.983398438 c 0
291.970703125 519.112304688 m 0
 131.537109375 521.108398438 116.098632812 372.235351562 116.098632812 293.198242188 c 1
 465.033203125 293.198242188 l 1
 465.033203125 378.79296875 429.42578125 517.40234375 291.970703125 519.112304688 c 0
191.075195312 -33.9921875 m 1
 195.33984375 -33.9921875 l 1
 210.698242188 -106.694335938 372.153320312 -110.252929688 385.63671875 -33.9921875 c 1
 390.331054688 -33.9921875 l 1
 391.779296875 -162.291015625 191.075195312 -159.420898438 191.075195312 -33.9921875 c 1
EndSplineSet
Validated: 33
EndChar

StartChar: I
Encoding: 73 73 13
Width: 533
Flags: W
HStem: -0.0751953 21G<75.3438 115.29 418.478 458> 530.993 20G<75.3438 115.29>
VStem: 75.3438 39.9463<-0.0751953 441.88 447.263 550.993> 418.478 39.5225<-0.0732422 440.607>
LayerCount: 2
Fore
SplineSet
75.34375 550.993164062 m 1
 115.290039062 550.993164062 l 1
 115.290039062 447.262695312 l 1
 186.046875 566.408203125 458 634.831054688 458 349.646484375 c 2
 458 -0.0751953125 l 1
 418.477539062 -0.0732421875 l 1
 418.477539062 379.196289062 l 2
 418.477539062 490.294921875 276.62890625 596.65625 115.290039062 426.752929688 c 1
 115.290039062 -0.0751953125 l 1
 75.34375 -0.0751953125 l 1
 75.34375 550.993164062 l 1
EndSplineSet
Validated: 33
EndChar

StartChar: J
Encoding: 74 74 14
Width: 524
Flags: W
HStem: 532.119 18.8945G<75 115.841 409.717 449>
VStem: 74.999 40.8418<92.494 551.77> 409.717 39.2832<-173.486 551.014>
LayerCount: 2
Fore
SplineSet
409.716796875 140.30078125 m 1
 383.177734375 -16.54296875 75.7880859375 -77.93359375 74.9990234375 148.833007812 c 0
 74.880859375 182.684570312 75 552.119140625 75 552.119140625 c 1
 115.840820312 551.946289062 l 1
 115.840820312 551.946289062 116.48828125 308.84375 115.840820312 156.520507812 c 0
 115.090820312 -19.7392578125 380.440429688 27.337890625 409.716796875 173.052734375 c 1
 409.716796875 551.013671875 l 1
 449 551.013671875 l 1
 449 -173.486328125 l 1
 409.716796875 -173.486328125 l 1
 409.716796875 140.30078125 l 1
EndSplineSet
Validated: 37
EndChar

StartChar: X
Encoding: 88 88 15
Width: 533
Flags: W
HStem: -167.255 4.98438<235.939 264.428> -0.0839844 21G<75.3223 115.271> 531.002 20G<75.3223 115.271>
VStem: 75.3223 39.9482<-0.0839844 443.875 449.16 551.002> 418.472 39.5244<-58.7231 442.626>
LayerCount: 2
Fore
SplineSet
75.322265625 551.001953125 m 1
 115.270507812 551.001953125 l 1
 115.270507812 449.16015625 l 1
 186.030273438 566.135742188 457.99609375 633.3125 457.99609375 353.322265625 c 2
 457.99609375 -0.083984375 l 2
 458.615234375 -76.1083984375 377.254882812 -147.578125 293.859375 -162.270507812 c 2
 235.939453125 -167.254882812 l 1
 339.671875 -157.323242188 419.138671875 -57.6298828125 418.471679688 -0.08203125 c 2
 418.471679688 382.333007812 l 2
 418.471679688 491.409179688 276.6171875 595.833007812 115.270507812 429.0234375 c 1
 115.270507812 -0.083984375 l 1
 75.322265625 -0.083984375 l 1
 75.322265625 551.001953125 l 1
EndSplineSet
Validated: 33
EndChar

StartChar: W
Encoding: 87 87 16
Width: 564
Flags: W
HStem: -12.4883 23.0723<232.291 331.598> 536.008 24.1025<230.351 333.54>
VStem: 59.8887 49.7998<154.812 395.007> 454.2 49.7998<156.425 396.581>
LayerCount: 2
Fore
SplineSet
281.9453125 560.110351562 m 0
 403.6796875 560.110351562 504 427.521484375 504 275.34375 c 0
 504.000976562 123.166015625 404.583984375 -12.48828125 281.9453125 -12.48828125 c 0
 159.306640625 -12.48828125 59.8447265625 121.155273438 59.888671875 275.34375 c 0
 59.931640625 429.532226562 160.209960938 560.110351562 281.9453125 560.110351562 c 0
281.9453125 536.0078125 m 0
 181.155273438 536.0078125 109.688476562 421.56640625 109.688476562 275.34375 c 0
 109.688476562 129.12109375 181.155273438 10.583984375 281.9453125 10.583984375 c 0
 382.734375 10.583984375 454.200195312 131.168945312 454.200195312 277.391601562 c 0
 454.200195312 423.614257812 382.734375 536.0078125 281.9453125 536.0078125 c 0
EndSplineSet
Validated: 33
EndChar

StartChar: U
Encoding: 85 85 17
Width: 487
Flags: W
HStem: -2.83301 30.8174<138.829 280.809> 522.065 28.7998<153.641 294.732>
VStem: 381.12 46.7939<164.02 428.917>
LayerCount: 2
Fore
SplineSet
231.616210938 550.865234375 m 0
 398.383789062 550.865234375 427.9140625 408.706054688 427.9140625 275.58984375 c 0
 427.9140625 142.473632812 327.172851562 -1.4873046875 231.616210938 -2.8330078125 c 0
 136.059570312 -4.1787109375 90.3994140625 28.5400390625 60.3984375 93.7578125 c 1
 104.686523438 50.5078125 141.434570312 27.9833984375 231.616210938 27.984375 c 0
 287.766601562 27.984375 381.120117188 88.1982421875 381.120117188 275.58984375 c 0
 381.120117188 462.98046875 319.288085938 522.065429688 231.616210938 522.065429688 c 0
 143.9453125 522.065429688 87.1962890625 475.071289062 71.6796875 448.029296875 c 1
 60 478.1953125 l 1
 74.400390625 494.25390625 116.982421875 550.865234375 231.616210938 550.865234375 c 0
EndSplineSet
Validated: 33
EndChar

StartChar: T
Encoding: 84 84 18
Width: 547
Flags: W
HStem: -0.200195 21G<74.959 130.333 429.012 472> 531.948 20G<74.959 117.947 416.736 472>
VStem: 74.959 42.9883<45.1699 551.946> 429.012 42.9883<-0.200195 502.082>
LayerCount: 2
Fore
SplineSet
429.01171875 551.948242188 m 1
 472 551.935546875 l 1
 472 -0.2001953125 l 1
 429.01171875 -0.2001953125 l 1
 429.01171875 502.08203125 l 1
 117.947265625 -0.2001953125 l 1
 74.958984375 -0.2001953125 l 1
 74.958984375 551.946289062 l 1
 117.947265625 551.946289062 l 1
 117.947265625 45.169921875 l 1
 429.01171875 551.948242188 l 1
EndSplineSet
Validated: 1
EndChar

StartChar: K
Encoding: 75 75 19
Width: 571
Flags: W
HStem: -3.20312 37.3984<207.804 385.229> 253.51 40.7744<111.099 460.033> 520.199 31.8701<206.068 353.984>
VStem: 65.4141 44.8174<142.456 253.51 294.284 405.049> 460.033 45.9668<294.284 395.334>
LayerCount: 2
Fore
SplineSet
286.970703125 552.069335938 m 0
 490.495117188 547.13671875 506 321.522460938 506 253.509765625 c 1
 110.231445312 253.509765625 l 1
 111.49609375 136.70703125 164.333984375 33.6923828125 286.990234375 34.1953125 c 0
 401.334960938 34.6640625 476.170898438 96.283203125 476.170898438 96.283203125 c 1
 474.220703125 92.4091796875 454.936523438 62.6240234375 452.71875 58.775390625 c 0
 439.791015625 45.4765625 385.043945312 -3.85546875 287.361328125 -3.203125 c 0
 179.545898438 -2.4833984375 66.1640625 61.4599609375 65.4140625 277.16015625 c 0
 65.4140625 462.34765625 176.358398438 554.750976562 286.970703125 552.069335938 c 0
286.970703125 520.19921875 m 0
 126.537109375 522.194335938 111.098632812 373.321289062 111.098632812 294.284179688 c 1
 460.033203125 294.284179688 l 1
 460.033203125 379.87890625 424.42578125 518.489257812 286.970703125 520.19921875 c 0
EndSplineSet
Validated: 33
EndChar

StartChar: L
Encoding: 76 76 20
Width: 523
Flags: W
HStem: -1.52441 31.1621<171.759 357.883> 266.229 18.9307<208.768 251.796> 524.457 27.1191<185.123 327.677>
VStem: 409.313 43.6885<68.7772 209.475 342.001 466.231>
LayerCount: 2
Fore
SplineSet
259.987304688 551.576171875 m 0
 371.470703125 551.576171875 453.001953125 482.315429688 453.001953125 411.2421875 c 0
 453.001953125 335.423828125 406.856445312 290.3046875 322.673828125 275.641601562 c 1
 404.938476562 260.733398438 452.571289062 215.0625 453.001953125 140 c 0
 453.538085938 46.4091796875 370.6796875 -1.5244140625 259.611328125 -1.5244140625 c 0
 148.54296875 -1.5234375 116.909179688 35.3583984375 85.61328125 59.421875 c 1
 60.5 119.998046875 l 1
 60.5 119.998046875 124.754882812 29.6298828125 259.969726562 29.6376953125 c 0
 395.184570312 29.6455078125 409.973632812 83.0693359375 409.313476562 140 c 0
 408.65625 196.731445312 378.540039062 260.65625 253.09375 262.15625 c 0
 252.534179688 262.15234375 209.327148438 266.228515625 208.767578125 266.228515625 c 1
 208.767578125 285.159179688 l 1
 251.795898438 289.254882812 l 2
 386.385742188 302.067382812 410.008789062 354.022460938 409.313476562 411.241210938 c 0
 408.653320312 465.565429688 349.487304688 524.483398438 259.985351562 524.45703125 c 0
 175.778320312 524.431640625 120.220703125 482.897460938 95.7431640625 436.198242188 c 1
 82.013671875 480.12890625 l 1
 108.05078125 501.583007812 148.504882812 551.576171875 259.987304688 551.576171875 c 0
EndSplineSet
Validated: 33
EndChar

StartChar: M
Encoding: 77 77 21
Width: 594
Flags: W
HStem: -12.4883 25.1201<245.114 348.681> 533.96 26.1504<243.432 350.268> 697.814 29.002<238.92 365.225>
VStem: 74.8887 47.752<155.246 394.573> 469.2 49.7998<155.246 394.573>
LayerCount: 2
Fore
SplineSet
149.778320312 593.706054688 m 1
 137.012695312 636.728515625 l 1
 167.346679688 683.583984375 227.364257812 726.075195312 296.944335938 726.81640625 c 0
 380.81640625 727.708984375 444.0703125 685.329101562 449.755859375 633.412109375 c 0
 454.737304688 587.934570312 419.013671875 560.620117188 333.55859375 554.919921875 c 1
 440.46484375 532.743164062 518.848632812 409.841796875 519 275.34375 c 0
 519.000976562 123.166015625 419.583007812 -12.4873046875 296.944335938 -12.48828125 c 0
 174.305664062 -12.4873046875 74.8876953125 123.166015625 74.888671875 275.34375 c 0
 74.888671875 427.521484375 174.306640625 560.109375 296.944335938 560.110351562 c 0
 386.3125 573.727539062 421.030273438 607.46484375 415.209960938 633.412109375 c 0
 404.060546875 683.119140625 328.741210938 698.1640625 296.944335938 697.814453125 c 0
 251.60546875 697.315429688 199.393554688 676.641601562 149.778320312 593.706054688 c 1
296.944335938 533.959960938 m 0
 196.154296875 533.959960938 122.640625 421.56640625 122.640625 275.34375 c 0
 122.640625 129.12109375 196.154296875 12.6318359375 296.944335938 12.6318359375 c 0
 397.734375 12.6318359375 469.200195312 129.12109375 469.200195312 275.34375 c 0
 469.200195312 421.56640625 397.734375 533.959960938 296.944335938 533.959960938 c 0
EndSplineSet
Validated: 33
EndChar

StartChar: N
Encoding: 78 78 22
Width: 685
Flags: W
HStem: -6.34375 18.9756<396.954 481.592> 256.106 38.4736<106.374 258.017> 538.056 18.9746<397.252 481.288>
VStem: 64.9541 41.4199<-0.181641 256.106 294.58 550.868> 258.017 49.5938<125.387 256.106 294.58 425.299> 572.248 47.752<130.786 419.901>
LayerCount: 2
Fore
SplineSet
438.904296875 557.030273438 m 0
 561.541992188 557.029296875 620 427.521484375 620 275.34375 c 0
 620.000976562 123.166015625 561.54296875 -6.34375 438.904296875 -6.34375 c 0
 320.361328125 -6.34375 261.796875 110.97265625 258.016601562 256.106445312 c 1
 106.374023438 256.106445312 l 1
 106.374023438 -0.181640625 l 1
 64.9541015625 -0.181640625 l 1
 64.9541015625 550.868164062 l 1
 106.374023438 550.868164062 l 1
 106.374023438 294.580078125 l 1
 258.016601562 294.580078125 l 1
 261.796875 439.712890625 320.361328125 557.029296875 438.904296875 557.030273438 c 0
438.904296875 538.055664062 m 0
 338.114257812 538.056640625 307.610351562 421.56640625 307.610351562 275.34375 c 0
 307.610351562 129.12109375 338.114257812 12.6318359375 438.904296875 12.6318359375 c 0
 539.694335938 12.6318359375 572.248046875 129.12109375 572.248046875 275.34375 c 0
 572.248046875 421.56640625 539.694335938 538.056640625 438.904296875 538.055664062 c 0
EndSplineSet
Validated: 33
EndChar

StartChar: O
Encoding: 79 79 23
Width: 506
Flags: W
HStem: -1.28223 31.0488<147.831 299.311> 258.687 33.293<158.684 391.015> 521.9 29.0156<161.145 298.653>
VStem: 391.145 44.8555<150.737 258.687 291.979 399.576>
LayerCount: 2
Fore
SplineSet
241.75 550.916015625 m 0
 374.060546875 550.692382812 436.063476562 387.104492188 436 274.486328125 c 0
 435.936523438 162.047851562 376.05859375 0.3828125 241.75 -1.2822265625 c 0
 138.315429688 -2.3291015625 79.7646484375 41.0849609375 70.533203125 111.860351562 c 1
 114.8203125 68.2861328125 123.657226562 29.7666015625 241.75 29.7666015625 c 0
 359.84375 29.767578125 391.0546875 177.86328125 391.14453125 258.686523438 c 1
 158.68359375 258.686523438 l 1
 158.68359375 291.979492188 l 1
 391.014648438 291.979492188 l 1
 390.1171875 371.27734375 364.170898438 521.900390625 241.75 521.900390625 c 0
 119.330078125 521.900390625 80.9462890625 445.770507812 81.8134765625 444.125976562 c 1
 70.1337890625 478.614257812 l 1
 84.5341796875 494.79296875 109.440429688 551.140625 241.75 550.916015625 c 0
EndSplineSet
Validated: 37
EndChar

StartChar: P
Encoding: 80 80 24
Width: 509
Flags: W
LayerCount: 2
Fore
SplineSet
415.639648438 560.021484375 m 1
 452.356445312 560.008789062 l 1
 278.104492188 277.1484375 l 1
 312.502929688 223.036132812 464 -7.3681640625 464 -7.3681640625 c 1
 414.868164062 -7.3681640625 l 1
 414.868164062 -7.3681640625 265.865234375 221.853515625 253.10546875 244.475585938 c 1
 230.676757812 203.159179688 94.3359375 -7.3681640625 94.3359375 -7.3681640625 c 1
 62.2197265625 -7.3681640625 l 1
 62.2197265625 -7.3681640625 218.66796875 237.702148438 234.880859375 264.0859375 c 1
 226.493164062 281.689453125 45.4482421875 560.07421875 44.5595703125 560.07421875 c 1
 89.4677734375 560.063476562 l 1
 89.4677734375 560.063476562 251.140625 314.038085938 259.291015625 297.891601562 c 1
 277.434570312 330.590820312 415.639648438 560.021484375 415.639648438 560.021484375 c 1
EndSplineSet
Validated: 524289
EndChar

StartChar: Z
Encoding: 90 90 25
Width: 547
Flags: W
HStem: -0.199219 21G<74.959 130.333 429.012 472> 531.948 20G<74.959 117.947 416.736 472>
VStem: 74.959 42.9883<45.1709 551.946> 429.012 42.9883<-0.199219 502.083>
LayerCount: 2
Fore
SplineSet
173.84765625 -33.419921875 m 1
 178.112304688 -33.419921875 l 1
 193.470703125 -106.122070312 354.92578125 -109.680664062 368.409179688 -33.419921875 c 1
 373.103515625 -33.419921875 l 1
 374.551757812 -161.71875 173.84765625 -158.848632812 173.84765625 -33.419921875 c 1
429.01171875 551.948242188 m 1
 472 551.936523438 l 1
 472 -0.19921875 l 1
 429.01171875 -0.19921875 l 1
 429.01171875 502.083007812 l 1
 117.947265625 -0.19921875 l 1
 74.958984375 -0.19921875 l 1
 74.958984375 551.946289062 l 1
 117.947265625 551.946289062 l 1
 117.947265625 45.1708984375 l 1
 429.01171875 551.948242188 l 1
EndSplineSet
Validated: 33
EndChar

StartChar: S
Encoding: 83 83 26
Width: 532
Flags: W
HStem: -0.438477 30.4033<119.048 260.896> 522.701 29.2451<119.048 259.064>
VStem: 74.5215 44.5264<29.9648 522.701>
LayerCount: 2
Fore
SplineSet
74.521484375 551.946289062 m 1
 154.948242188 551.946289062 l 2
 572.07421875 551.946289062 583.2578125 -0.4423828125 154.948242188 -0.4384765625 c 2
 74.521484375 -0.4384765625 l 1
 74.521484375 551.946289062 l 1
119.047851562 522.701171875 m 1
 119.047851562 29.96484375 l 1
 174.428710938 29.96484375 l 2
 514.501953125 29.96484375 505.655273438 522.701171875 174.428710938 522.701171875 c 2
 119.047851562 522.701171875 l 1
145.047851562 -33.419921875 m 1
 149.3125 -33.419921875 l 1
 164.669921875 -106.122070312 326.125976562 -109.680664062 339.608398438 -33.419921875 c 1
 344.303710938 -33.419921875 l 1
 345.751953125 -161.71875 145.047851562 -158.848632812 145.047851562 -33.419921875 c 1
EndSplineSet
Validated: 33
EndChar

StartChar: H
Encoding: 72 72 27
Width: 511
Flags: W
HStem: -2.83301 30.8174<200.596 359.223> 522.065 28.7998<205.182 346.273>
VStem: 72 46.7939<135.204 428.651>
LayerCount: 2
Fore
SplineSet
268.297851562 550.865234375 m 0
 382.931640625 550.865234375 425.513671875 494.25390625 439.9140625 478.1953125 c 1
 428.234375 448.029296875 l 1
 412.717773438 475.071289062 355.96875 522.065429688 268.297851562 522.065429688 c 0
 180.625976562 522.065429688 118.793945312 461.7109375 118.793945312 275.58984375 c 0
 118.793945312 89.46875 171.358398438 27.984375 268.297851562 27.984375 c 0
 356.090820312 27.984375 353.754882812 39.244140625 439.515625 93.7578125 c 1
 425.8984375 70.0126953125 406.490234375 -2.59375 268.297851562 -2.8330078125 c 0
 130.10546875 -3.072265625 72 129.83203125 72 275.58984375 c 0
 72 421.34765625 101.530273438 550.865234375 268.297851562 550.865234375 c 0
EndSplineSet
Validated: 33
EndChar

StartChar: zero
Encoding: 48 48 28
Width: 431
Flags: W
VStem: 70.043 290.957
LayerCount: 2
Fore
SplineSet
361 125.467773438 m 1
 302.041992188 108.608398438 l 1
 70.04296875 525.623046875 l 1
 125.684570312 505.356445312 l 1
 361 125.467773438 l 1
EndSplineSet
Validated: 1
EndChar

StartChar: one
Encoding: 49 49 29
Width: 277
Flags: W
HStem: -113.864 21G<145.927 157.004> 680.277 20G<120.16 145.59>
VStem: 120.16 36.8438<-47.3389 671.301>
LayerCount: 2
Fore
SplineSet
120.16015625 700.27734375 m 1
 157.00390625 671.30078125 l 1
 157.00390625 -113.864257812 l 1
 120.16015625 -47.3388671875 l 1
 120.16015625 700.27734375 l 1
EndSplineSet
Validated: 1
EndChar

StartChar: two
Encoding: 50 50 30
Width: 403
Flags: W
HStem: -113.864 21G<296.923 308> 680.277 20G<271.155 296.586>
VStem: 95.2793 36.8447<135.641 576.083> 271.155 36.8447<-47.3389 671.301>
LayerCount: 2
Fore
SplineSet
132.124023438 576.083007812 m 1
 132.124023438 111.064453125 l 1
 95.279296875 135.640625 l 1
 95.279296875 600.659179688 l 1
 132.124023438 576.083007812 l 1
271.155273438 700.27734375 m 1
 308 671.30078125 l 1
 308 -113.864257812 l 1
 271.155273438 -47.3388671875 l 1
 271.155273438 700.27734375 l 1
EndSplineSet
Validated: 1
EndChar

StartChar: three
Encoding: 51 51 31
Width: 516
Flags: W
HStem: -113.864 21G<424.924 436> 680.278 20G<399.156 424.586>
VStem: 79.9199 36.8438<121.304 561.746> 245.682 36.8447<177.984 510.646> 399.156 36.8438<-47.3379 671.302>
LayerCount: 2
Fore
SplineSet
116.763671875 561.74609375 m 1
 116.763671875 96.7275390625 l 1
 79.919921875 121.303710938 l 1
 79.919921875 586.322265625 l 1
 116.763671875 561.74609375 l 1
282.526367188 510.646484375 m 1
 282.526367188 159.421875 l 1
 245.681640625 177.984375 l 1
 245.681640625 529.208007812 l 1
 282.526367188 510.646484375 l 1
399.15625 -47.337890625 m 1
 399.15625 700.278320312 l 1
 436 671.301757812 l 1
 436 -113.864257812 l 1
 399.15625 -47.337890625 l 1
EndSplineSet
Validated: 1
EndChar

StartChar: four
Encoding: 52 52 32
Width: 494
Flags: W
VStem: 374.598 39.9922<495.676 574.727>
LayerCount: 2
Fore
SplineSet
374.59765625 625.456054688 m 1
 414.58984375 563.6484375 l 1
 408.852539062 530.37890625 375.571289062 389.397460938 313.74609375 251.971679688 c 1
 376.555664062 152.856445312 l 1
 336.717773438 141.463867188 l 1
 295.713867188 221.024414062 l 1
 244.578125 121.69140625 169.734375 17.23046875 55 -37.416015625 c 1
 154.377929688 43.89453125 224.638671875 147.065429688 273.965820312 254.259765625 c 1
 179.950195312 423.25 l 1
 217.547851562 409.555664062 l 1
 293.719726562 280.502929688 l 1
 341.740234375 396.849609375 363.170898438 526.891601562 374.59765625 625.456054688 c 1
EndSplineSet
Validated: 1
EndChar

StartChar: five
Encoding: 53 53 33
Width: 567
Flags: W
HStem: 260.636 142.966
LayerCount: 2
Fore
SplineSet
537.391601562 403.6015625 m 1
 489.075195312 355.869140625 l 1
 30 260.635742188 l 1
 67.845703125 306.181640625 l 1
 537.391601562 403.6015625 l 1
EndSplineSet
Validated: 1
EndChar

StartChar: six
Encoding: 54 54 34
Width: 567
Flags: W
HStem: -113.864 21G<282.46 293.536> 680.278 20G<256.692 282.122>
VStem: 256.692 36.8438<-47.3379 307.742 353.088 671.302>
LayerCount: 2
Fore
SplineSet
256.692382812 700.278320312 m 1
 293.536132812 671.301757812 l 1
 293.536132812 353.087890625 l 1
 537.001953125 403.6015625 l 1
 488.686523438 355.868164062 l 1
 293.536132812 315.385742188 l 1
 293.536132812 -113.864257812 l 1
 256.692382812 -47.337890625 l 1
 256.692382812 307.7421875 l 1
 29.6103515625 260.635742188 l 1
 67.4560546875 306.181640625 l 1
 256.692382812 345.444335938 l 1
 256.692382812 700.278320312 l 1
EndSplineSet
Validated: 1
EndChar

StartChar: seven
Encoding: 55 55 35
Width: 557
Flags: W
HStem: -113.864 21G<365.788 376.864> 680.278 20G<340.02 365.45>
VStem: 164.144 36.8447<135.64 289.5 334.844 576.082> 340.02 36.8447<-47.3379 325.984 371.334 671.302>
LayerCount: 2
Fore
SplineSet
340.01953125 700.278320312 m 1
 376.864257812 671.301757812 l 1
 376.864257812 371.333984375 l 1
 532.391601562 403.6015625 l 1
 484.076171875 355.868164062 l 1
 376.864257812 333.627929688 l 1
 376.864257812 -113.864257812 l 1
 340.01953125 -47.337890625 l 1
 340.01953125 325.984375 l 1
 200.98828125 297.143554688 l 1
 200.98828125 111.064453125 l 1
 164.143554688 135.639648438 l 1
 164.143554688 289.5 l 1
 25 260.635742188 l 1
 62.845703125 306.181640625 l 1
 164.143554688 327.200195312 l 1
 164.143554688 600.658203125 l 1
 200.98828125 576.08203125 l 1
 200.98828125 334.84375 l 1
 340.01953125 363.690429688 l 1
 340.01953125 700.278320312 l 1
EndSplineSet
Validated: 1
EndChar

StartChar: eight
Encoding: 56 56 36
Width: 696
Flags: W
HStem: -113.864 21G<502.704 513.78> 680.278 20G<476.937 502.367>
VStem: 157.7 36.8438<121.304 266.668 310.59 561.746> 315.271 36.8438<177.984 298.594 342.519 510.646> 476.937 36.8438<-47.3379 330.521 371.546 671.302>
LayerCount: 2
Fore
SplineSet
476.936523438 700.278320312 m 1
 513.780273438 671.301757812 l 1
 513.780273438 371.545898438 l 1
 671 400.767578125 l 1
 621.22265625 354.559570312 l 1
 513.780273438 335.580078125 l 1
 513.780273438 -113.864257812 l 1
 476.936523438 -47.337890625 l 1
 476.936523438 330.520507812 l 1
 352.114257812 306.190429688 l 1
 352.114257812 159.421875 l 1
 315.270507812 177.984375 l 1
 315.270507812 298.59375 l 1
 194.543945312 274.26171875 l 1
 194.543945312 96.7275390625 l 1
 157.700195312 121.303710938 l 1
 157.700195312 266.66796875 l 1
 25.056640625 234.797851562 l 1
 64.30078125 279.143554688 l 1
 157.700195312 301.185546875 l 1
 157.700195312 586.322265625 l 1
 194.543945312 561.74609375 l 1
 194.543945312 310.58984375 l 1
 315.270507812 334.559570312 l 1
 315.270507812 529.208007812 l 1
 352.114257812 510.646484375 l 1
 352.114257812 342.518554688 l 1
 476.936523438 366.486328125 l 1
 476.936523438 700.278320312 l 1
EndSplineSet
Validated: 1
EndChar

StartChar: nine
Encoding: 57 57 37
Width: 461
Flags: W
LayerCount: 2
Fore
SplineSet
380.026367188 589.35546875 m 1
 411 553.583984375 l 1
 405.262695312 520.314453125 370.387695312 389.397460938 308.5625 251.971679688 c 1
 371.372070312 152.856445312 l 1
 331.534179688 141.463867188 l 1
 290.530273438 221.024414062 l 1
 239.39453125 121.69140625 164.55078125 17.2294921875 49.81640625 -37.416015625 c 1
 149.194335938 43.89453125 219.455078125 147.065429688 268.782226562 254.259765625 c 1
 174.766601562 423.25 l 1
 212.364257812 409.555664062 l 1
 288.536132812 280.50390625 l 1
 331.16796875 383.794921875 358.768554688 468.405273438 371.091796875 554.119140625 c 1
 324.21484375 542.048828125 152.568359375 505.245117188 55.337890625 483.112304688 c 1
 111.104492188 526.8359375 l 1
 380.026367188 589.35546875 l 1
EndSplineSet
Validated: 1
EndChar
